<?xml version="1.0" encoding="UTF-8" standalone="no"?><!DOCTYPE svg PUBLIC "-//W3C//DTD SVG 1.1//EN" "http://www.w3.org/Graphics/SVG/1.1/DTD/svg11.dtd"><svg width="100%" height="100%" viewBox="0 0 2084 1042" version="1.1" xmlns="http://www.w3.org/2000/svg" xmlns:xlink="http://www.w3.org/1999/xlink" xml:space="preserve" xmlns:serif="http://www.serif.com/" style="fill-rule:evenodd;clip-rule:evenodd;stroke-linecap:round;stroke-linejoin:round;stroke-miterlimit:1.5;"><rect id="Coffee" x="0" y="0" width="2083.33" height="1041.67" style="fill:none;"/><g><text x="500.555px" y="1012.99px" style="font-family:'Helvetica-Light', 'Helvetica', sans-serif;font-weight:300;font-size:193.657px;">ZBM COFFE</text><g><path d="M1481.92,760.626c-3.742,18.406 -20.032,32.276 -39.536,32.276l-802.201,-0c-19.504,-0 -35.794,-13.87 -39.537,-32.276l881.274,-0Z" style="fill:#f2c4a3;"/></g><g><path d="M1329.42,405.589l-0,178.694c-0,79.512 -64.555,144.067 -144.067,144.067l-288.135,-0c-79.513,-0 -144.067,-64.555 -144.067,-144.067l-0,-178.694l576.269,-0Zm-0,-32.276l-576.269,-0l-0,-32.276l576.269,-0l-0,32.276Z" style="fill:#f2c4a3;"/></g><g><path d="M963.536,72.069c52.001,43.035 -121.931,129.105 -86.069,177.519" style="fill:none;stroke:#f2c4a3;stroke-width:8.33px;"/><path d="M1203.64,72.069c52.001,43.035 -121.932,129.105 -86.069,177.519" style="fill:none;stroke:#f2c4a3;stroke-width:8.33px;"/><path d="M1076.97,25c77.104,75.311 -140.76,202.622 -78.001,268.967" style="fill:none;stroke:#f2c4a3;stroke-width:8.33px;"/></g></g></svg>