<?xml version="1.0" encoding="UTF-8" standalone="no"?><!DOCTYPE svg PUBLIC "-//W3C//DTD SVG 1.1//EN" "http://www.w3.org/Graphics/SVG/1.1/DTD/svg11.dtd"><svg width="100%" height="100%" viewBox="0 0 24 24" version="1.1" xmlns="http://www.w3.org/2000/svg" xmlns:xlink="http://www.w3.org/1999/xlink" xml:space="preserve" xmlns:serif="http://www.serif.com/" style="fill-rule:evenodd;clip-rule:evenodd;stroke-linejoin:round;stroke-miterlimit:2;"><path d="M12,0c-3.148,0 -6,2.553 -6,5.702c0,4.682 4.783,5.177 6,12.298c1.217,-7.121 6,-7.616 6,-12.298c0,-3.149 -2.851,-5.702 -6,-5.702Zm0,8c-1.105,0 -2,-0.895 -2,-2c0,-1.105 0.895,-2 2,-2c1.105,0 2,0.895 2,2c0,1.105 -0.895,2 -2,2Zm12,16l-6.707,-2.427l-5.293,2.427l-5.581,-2.427l-6.419,2.427l4,-9l3.96,-1.584c0.38,0.516 0.741,1.08 1.061,1.729l-3.523,1.41l-1.725,3.88l2.672,-1.01l1.506,-2.687l-0.635,3.044l4.189,1.789l0.495,-2.021l0.465,2.024l4.15,-1.89l-0.618,-3.033l1.572,2.896l2.732,0.989l-1.739,-3.978l-3.581,-1.415c0.319,-0.65 0.681,-1.215 1.062,-1.731l4.021,1.588l3.936,9Z" style="fill:#fff;fill-rule:nonzero;"/></svg>